<mxfile host="app.diagrams.net" agent="Mozilla/5.0 (Windows NT 10.0; Win64; x64) AppleWebKit/537.36 (KHTML, like Gecko) Chrome/131.0.0.0 Safari/537.36" version="25.0.3">
  <diagram id="C5RBs43oDa-KdzZeNtuy" name="Page-1">
    <mxGraphModel dx="1034" dy="412" grid="1" gridSize="10" guides="1" tooltips="1" connect="1" arrows="1" fold="1" page="1" pageScale="1" pageWidth="827" pageHeight="1169" math="0" shadow="0">
      <root>
        <mxCell id="WIyWlLk6GJQsqaUBKTNV-0" />
        <mxCell id="WIyWlLk6GJQsqaUBKTNV-1" parent="WIyWlLk6GJQsqaUBKTNV-0" />
        <mxCell id="2tsxsZb1pABXOOoXGLCt-4" value="" style="edgeStyle=orthogonalEdgeStyle;rounded=0;orthogonalLoop=1;jettySize=auto;html=1;" edge="1" parent="WIyWlLk6GJQsqaUBKTNV-1" source="2tsxsZb1pABXOOoXGLCt-0" target="2tsxsZb1pABXOOoXGLCt-1">
          <mxGeometry relative="1" as="geometry" />
        </mxCell>
        <mxCell id="2tsxsZb1pABXOOoXGLCt-0" value="Mulai" style="ellipse;whiteSpace=wrap;html=1;" vertex="1" parent="WIyWlLk6GJQsqaUBKTNV-1">
          <mxGeometry x="240" y="90" width="70" height="50" as="geometry" />
        </mxCell>
        <mxCell id="2tsxsZb1pABXOOoXGLCt-3" value="" style="edgeStyle=orthogonalEdgeStyle;rounded=0;orthogonalLoop=1;jettySize=auto;html=1;" edge="1" parent="WIyWlLk6GJQsqaUBKTNV-1" source="2tsxsZb1pABXOOoXGLCt-1" target="2tsxsZb1pABXOOoXGLCt-2">
          <mxGeometry relative="1" as="geometry" />
        </mxCell>
        <mxCell id="2tsxsZb1pABXOOoXGLCt-1" value="Mulai Registrasi" style="rounded=0;whiteSpace=wrap;html=1;" vertex="1" parent="WIyWlLk6GJQsqaUBKTNV-1">
          <mxGeometry x="215" y="190" width="120" height="60" as="geometry" />
        </mxCell>
        <mxCell id="2tsxsZb1pABXOOoXGLCt-6" value="" style="edgeStyle=orthogonalEdgeStyle;rounded=0;orthogonalLoop=1;jettySize=auto;html=1;" edge="1" parent="WIyWlLk6GJQsqaUBKTNV-1" source="2tsxsZb1pABXOOoXGLCt-2" target="2tsxsZb1pABXOOoXGLCt-5">
          <mxGeometry relative="1" as="geometry" />
        </mxCell>
        <mxCell id="2tsxsZb1pABXOOoXGLCt-12" value="" style="edgeStyle=orthogonalEdgeStyle;rounded=0;orthogonalLoop=1;jettySize=auto;html=1;" edge="1" parent="WIyWlLk6GJQsqaUBKTNV-1" source="2tsxsZb1pABXOOoXGLCt-2" target="2tsxsZb1pABXOOoXGLCt-11">
          <mxGeometry relative="1" as="geometry" />
        </mxCell>
        <mxCell id="2tsxsZb1pABXOOoXGLCt-2" value="Pengguna&lt;div&gt;baru&lt;/div&gt;" style="rhombus;whiteSpace=wrap;html=1;rounded=0;" vertex="1" parent="WIyWlLk6GJQsqaUBKTNV-1">
          <mxGeometry x="235" y="290" width="80" height="80" as="geometry" />
        </mxCell>
        <mxCell id="2tsxsZb1pABXOOoXGLCt-8" value="" style="edgeStyle=orthogonalEdgeStyle;rounded=0;orthogonalLoop=1;jettySize=auto;html=1;" edge="1" parent="WIyWlLk6GJQsqaUBKTNV-1" source="2tsxsZb1pABXOOoXGLCt-5" target="2tsxsZb1pABXOOoXGLCt-7">
          <mxGeometry relative="1" as="geometry" />
        </mxCell>
        <mxCell id="2tsxsZb1pABXOOoXGLCt-5" value="Sign Up" style="whiteSpace=wrap;html=1;rounded=0;" vertex="1" parent="WIyWlLk6GJQsqaUBKTNV-1">
          <mxGeometry x="55" y="300" width="120" height="60" as="geometry" />
        </mxCell>
        <mxCell id="2tsxsZb1pABXOOoXGLCt-10" value="" style="edgeStyle=orthogonalEdgeStyle;rounded=0;orthogonalLoop=1;jettySize=auto;html=1;" edge="1" parent="WIyWlLk6GJQsqaUBKTNV-1" source="2tsxsZb1pABXOOoXGLCt-7" target="2tsxsZb1pABXOOoXGLCt-9">
          <mxGeometry relative="1" as="geometry" />
        </mxCell>
        <mxCell id="2tsxsZb1pABXOOoXGLCt-7" value="Input Email &amp;amp;&lt;div&gt;Password Baru&lt;/div&gt;" style="shape=parallelogram;perimeter=parallelogramPerimeter;whiteSpace=wrap;html=1;fixedSize=1;rounded=0;" vertex="1" parent="WIyWlLk6GJQsqaUBKTNV-1">
          <mxGeometry x="55" y="400" width="120" height="60" as="geometry" />
        </mxCell>
        <mxCell id="2tsxsZb1pABXOOoXGLCt-36" value="" style="edgeStyle=orthogonalEdgeStyle;rounded=0;orthogonalLoop=1;jettySize=auto;html=1;" edge="1" parent="WIyWlLk6GJQsqaUBKTNV-1" source="2tsxsZb1pABXOOoXGLCt-9" target="2tsxsZb1pABXOOoXGLCt-11">
          <mxGeometry relative="1" as="geometry" />
        </mxCell>
        <mxCell id="2tsxsZb1pABXOOoXGLCt-9" value="Print &quot;Registrasi Sukses&quot;&amp;nbsp;" style="shape=parallelogram;perimeter=parallelogramPerimeter;whiteSpace=wrap;html=1;fixedSize=1;rounded=0;" vertex="1" parent="WIyWlLk6GJQsqaUBKTNV-1">
          <mxGeometry x="55" y="525" width="120" height="60" as="geometry" />
        </mxCell>
        <mxCell id="2tsxsZb1pABXOOoXGLCt-14" value="" style="edgeStyle=orthogonalEdgeStyle;rounded=0;orthogonalLoop=1;jettySize=auto;html=1;" edge="1" parent="WIyWlLk6GJQsqaUBKTNV-1" source="2tsxsZb1pABXOOoXGLCt-11" target="2tsxsZb1pABXOOoXGLCt-13">
          <mxGeometry relative="1" as="geometry" />
        </mxCell>
        <mxCell id="2tsxsZb1pABXOOoXGLCt-11" value="Sign In" style="whiteSpace=wrap;html=1;rounded=0;" vertex="1" parent="WIyWlLk6GJQsqaUBKTNV-1">
          <mxGeometry x="215" y="570" width="120" height="60" as="geometry" />
        </mxCell>
        <mxCell id="2tsxsZb1pABXOOoXGLCt-16" value="" style="edgeStyle=orthogonalEdgeStyle;rounded=0;orthogonalLoop=1;jettySize=auto;html=1;" edge="1" parent="WIyWlLk6GJQsqaUBKTNV-1" source="2tsxsZb1pABXOOoXGLCt-13" target="2tsxsZb1pABXOOoXGLCt-15">
          <mxGeometry relative="1" as="geometry" />
        </mxCell>
        <mxCell id="2tsxsZb1pABXOOoXGLCt-13" value="Input Email &amp;amp; Password" style="shape=parallelogram;perimeter=parallelogramPerimeter;whiteSpace=wrap;html=1;fixedSize=1;rounded=0;" vertex="1" parent="WIyWlLk6GJQsqaUBKTNV-1">
          <mxGeometry x="215" y="690" width="120" height="60" as="geometry" />
        </mxCell>
        <mxCell id="2tsxsZb1pABXOOoXGLCt-15" value="Email &amp;amp; Password Benar?" style="rhombus;whiteSpace=wrap;html=1;rounded=0;" vertex="1" parent="WIyWlLk6GJQsqaUBKTNV-1">
          <mxGeometry x="235" y="790" width="80" height="80" as="geometry" />
        </mxCell>
        <mxCell id="2tsxsZb1pABXOOoXGLCt-20" value="" style="edgeStyle=orthogonalEdgeStyle;rounded=0;orthogonalLoop=1;jettySize=auto;html=1;" edge="1" parent="WIyWlLk6GJQsqaUBKTNV-1" source="2tsxsZb1pABXOOoXGLCt-17" target="2tsxsZb1pABXOOoXGLCt-19">
          <mxGeometry relative="1" as="geometry" />
        </mxCell>
        <mxCell id="2tsxsZb1pABXOOoXGLCt-17" value="Memilih Produk Yang Ingin Dibeli" style="whiteSpace=wrap;html=1;rounded=0;" vertex="1" parent="WIyWlLk6GJQsqaUBKTNV-1">
          <mxGeometry x="215" y="980" width="120" height="60" as="geometry" />
        </mxCell>
        <mxCell id="2tsxsZb1pABXOOoXGLCt-22" value="" style="edgeStyle=orthogonalEdgeStyle;rounded=0;orthogonalLoop=1;jettySize=auto;html=1;" edge="1" parent="WIyWlLk6GJQsqaUBKTNV-1" source="2tsxsZb1pABXOOoXGLCt-19" target="2tsxsZb1pABXOOoXGLCt-21">
          <mxGeometry relative="1" as="geometry" />
        </mxCell>
        <mxCell id="2tsxsZb1pABXOOoXGLCt-19" value="Cek Stok Produk" style="rhombus;whiteSpace=wrap;html=1;rounded=0;" vertex="1" parent="WIyWlLk6GJQsqaUBKTNV-1">
          <mxGeometry x="235" y="1089" width="80" height="80" as="geometry" />
        </mxCell>
        <mxCell id="2tsxsZb1pABXOOoXGLCt-24" value="" style="edgeStyle=orthogonalEdgeStyle;rounded=0;orthogonalLoop=1;jettySize=auto;html=1;" edge="1" parent="WIyWlLk6GJQsqaUBKTNV-1" source="2tsxsZb1pABXOOoXGLCt-21" target="2tsxsZb1pABXOOoXGLCt-23">
          <mxGeometry relative="1" as="geometry" />
        </mxCell>
        <mxCell id="2tsxsZb1pABXOOoXGLCt-21" value="Cek Jumlah Stok" style="rhombus;whiteSpace=wrap;html=1;rounded=0;" vertex="1" parent="WIyWlLk6GJQsqaUBKTNV-1">
          <mxGeometry x="235" y="1210" width="80" height="80" as="geometry" />
        </mxCell>
        <mxCell id="2tsxsZb1pABXOOoXGLCt-26" value="" style="edgeStyle=orthogonalEdgeStyle;rounded=0;orthogonalLoop=1;jettySize=auto;html=1;" edge="1" parent="WIyWlLk6GJQsqaUBKTNV-1" source="2tsxsZb1pABXOOoXGLCt-23" target="2tsxsZb1pABXOOoXGLCt-25">
          <mxGeometry relative="1" as="geometry" />
        </mxCell>
        <mxCell id="2tsxsZb1pABXOOoXGLCt-23" value="Hitung Total Harga" style="rounded=0;whiteSpace=wrap;html=1;" vertex="1" parent="WIyWlLk6GJQsqaUBKTNV-1">
          <mxGeometry x="215" y="1340" width="120" height="60" as="geometry" />
        </mxCell>
        <mxCell id="2tsxsZb1pABXOOoXGLCt-28" value="" style="edgeStyle=orthogonalEdgeStyle;rounded=0;orthogonalLoop=1;jettySize=auto;html=1;" edge="1" parent="WIyWlLk6GJQsqaUBKTNV-1" source="2tsxsZb1pABXOOoXGLCt-25" target="2tsxsZb1pABXOOoXGLCt-27">
          <mxGeometry relative="1" as="geometry" />
        </mxCell>
        <mxCell id="2tsxsZb1pABXOOoXGLCt-30" value="" style="edgeStyle=orthogonalEdgeStyle;rounded=0;orthogonalLoop=1;jettySize=auto;html=1;" edge="1" parent="WIyWlLk6GJQsqaUBKTNV-1" source="2tsxsZb1pABXOOoXGLCt-25" target="2tsxsZb1pABXOOoXGLCt-29">
          <mxGeometry relative="1" as="geometry" />
        </mxCell>
        <mxCell id="2tsxsZb1pABXOOoXGLCt-25" value="Konfirmasi Pembelian" style="rhombus;whiteSpace=wrap;html=1;rounded=0;" vertex="1" parent="WIyWlLk6GJQsqaUBKTNV-1">
          <mxGeometry x="235" y="1440" width="80" height="80" as="geometry" />
        </mxCell>
        <mxCell id="2tsxsZb1pABXOOoXGLCt-27" value="Selesai" style="ellipse;whiteSpace=wrap;html=1;" vertex="1" parent="WIyWlLk6GJQsqaUBKTNV-1">
          <mxGeometry x="237.5" y="1640" width="75" height="60" as="geometry" />
        </mxCell>
        <mxCell id="2tsxsZb1pABXOOoXGLCt-32" value="" style="edgeStyle=orthogonalEdgeStyle;rounded=0;orthogonalLoop=1;jettySize=auto;html=1;" edge="1" parent="WIyWlLk6GJQsqaUBKTNV-1" source="2tsxsZb1pABXOOoXGLCt-29" target="2tsxsZb1pABXOOoXGLCt-31">
          <mxGeometry relative="1" as="geometry" />
        </mxCell>
        <mxCell id="2tsxsZb1pABXOOoXGLCt-29" value="Kurangi Stok" style="whiteSpace=wrap;html=1;rounded=0;" vertex="1" parent="WIyWlLk6GJQsqaUBKTNV-1">
          <mxGeometry x="370" y="1450" width="120" height="60" as="geometry" />
        </mxCell>
        <mxCell id="2tsxsZb1pABXOOoXGLCt-33" value="" style="edgeStyle=orthogonalEdgeStyle;rounded=0;orthogonalLoop=1;jettySize=auto;html=1;" edge="1" parent="WIyWlLk6GJQsqaUBKTNV-1" source="2tsxsZb1pABXOOoXGLCt-31" target="2tsxsZb1pABXOOoXGLCt-27">
          <mxGeometry relative="1" as="geometry" />
        </mxCell>
        <mxCell id="2tsxsZb1pABXOOoXGLCt-31" value="Cek Nota&amp;nbsp;&lt;div&gt;Pembelian&lt;/div&gt;" style="shape=parallelogram;perimeter=parallelogramPerimeter;whiteSpace=wrap;html=1;fixedSize=1;rounded=0;" vertex="1" parent="WIyWlLk6GJQsqaUBKTNV-1">
          <mxGeometry x="370" y="1640" width="120" height="60" as="geometry" />
        </mxCell>
        <mxCell id="2tsxsZb1pABXOOoXGLCt-34" value="ya" style="text;html=1;align=center;verticalAlign=middle;whiteSpace=wrap;rounded=0;" vertex="1" parent="WIyWlLk6GJQsqaUBKTNV-1">
          <mxGeometry x="180" y="290" width="60" height="30" as="geometry" />
        </mxCell>
        <mxCell id="2tsxsZb1pABXOOoXGLCt-35" value="tidak" style="text;html=1;align=center;verticalAlign=middle;whiteSpace=wrap;rounded=0;" vertex="1" parent="WIyWlLk6GJQsqaUBKTNV-1">
          <mxGeometry x="275" y="415" width="60" height="30" as="geometry" />
        </mxCell>
        <mxCell id="2tsxsZb1pABXOOoXGLCt-37" value="" style="endArrow=classic;html=1;rounded=0;exitX=1;exitY=0.5;exitDx=0;exitDy=0;entryX=1;entryY=0.5;entryDx=0;entryDy=0;" edge="1" parent="WIyWlLk6GJQsqaUBKTNV-1" source="2tsxsZb1pABXOOoXGLCt-15" target="2tsxsZb1pABXOOoXGLCt-11">
          <mxGeometry width="50" height="50" relative="1" as="geometry">
            <mxPoint x="390" y="790" as="sourcePoint" />
            <mxPoint x="440" y="740" as="targetPoint" />
            <Array as="points">
              <mxPoint x="400" y="830" />
              <mxPoint x="400" y="600" />
            </Array>
          </mxGeometry>
        </mxCell>
        <mxCell id="2tsxsZb1pABXOOoXGLCt-38" value="tidak" style="text;html=1;align=center;verticalAlign=middle;whiteSpace=wrap;rounded=0;" vertex="1" parent="WIyWlLk6GJQsqaUBKTNV-1">
          <mxGeometry x="390" y="720" width="60" height="30" as="geometry" />
        </mxCell>
        <mxCell id="2tsxsZb1pABXOOoXGLCt-41" value="ya" style="text;html=1;align=center;verticalAlign=middle;whiteSpace=wrap;rounded=0;" vertex="1" parent="WIyWlLk6GJQsqaUBKTNV-1">
          <mxGeometry x="270" y="950" width="60" height="30" as="geometry" />
        </mxCell>
        <mxCell id="2tsxsZb1pABXOOoXGLCt-42" value="" style="endArrow=classic;html=1;rounded=0;exitX=1;exitY=0.5;exitDx=0;exitDy=0;entryX=1;entryY=0.5;entryDx=0;entryDy=0;" edge="1" parent="WIyWlLk6GJQsqaUBKTNV-1" source="2tsxsZb1pABXOOoXGLCt-21" target="2tsxsZb1pABXOOoXGLCt-17">
          <mxGeometry width="50" height="50" relative="1" as="geometry">
            <mxPoint x="330" y="1150" as="sourcePoint" />
            <mxPoint x="380" y="1100" as="targetPoint" />
            <Array as="points">
              <mxPoint x="400" y="1250" />
              <mxPoint x="400" y="1010" />
            </Array>
          </mxGeometry>
        </mxCell>
        <mxCell id="2tsxsZb1pABXOOoXGLCt-43" value="tidak" style="text;html=1;align=center;verticalAlign=middle;whiteSpace=wrap;rounded=0;" vertex="1" parent="WIyWlLk6GJQsqaUBKTNV-1">
          <mxGeometry x="390" y="1030" width="60" height="30" as="geometry" />
        </mxCell>
        <mxCell id="2tsxsZb1pABXOOoXGLCt-44" value="" style="endArrow=classic;html=1;rounded=0;exitX=0;exitY=0.5;exitDx=0;exitDy=0;entryX=0;entryY=0.5;entryDx=0;entryDy=0;" edge="1" parent="WIyWlLk6GJQsqaUBKTNV-1" source="2tsxsZb1pABXOOoXGLCt-19" target="2tsxsZb1pABXOOoXGLCt-17">
          <mxGeometry width="50" height="50" relative="1" as="geometry">
            <mxPoint x="180" y="1050" as="sourcePoint" />
            <mxPoint x="230" y="1000" as="targetPoint" />
            <Array as="points">
              <mxPoint x="200" y="1129" />
              <mxPoint x="200" y="1010" />
            </Array>
          </mxGeometry>
        </mxCell>
        <mxCell id="2tsxsZb1pABXOOoXGLCt-45" value="tidak" style="text;html=1;align=center;verticalAlign=middle;whiteSpace=wrap;rounded=0;" vertex="1" parent="WIyWlLk6GJQsqaUBKTNV-1">
          <mxGeometry x="150" y="1050" width="60" height="30" as="geometry" />
        </mxCell>
        <mxCell id="2tsxsZb1pABXOOoXGLCt-47" value="ya" style="text;html=1;align=center;verticalAlign=middle;whiteSpace=wrap;rounded=0;" vertex="1" parent="WIyWlLk6GJQsqaUBKTNV-1">
          <mxGeometry x="275" y="1170" width="60" height="30" as="geometry" />
        </mxCell>
        <mxCell id="2tsxsZb1pABXOOoXGLCt-50" value="ya" style="text;html=1;align=center;verticalAlign=middle;whiteSpace=wrap;rounded=0;" vertex="1" parent="WIyWlLk6GJQsqaUBKTNV-1">
          <mxGeometry x="310" y="1480" width="60" height="30" as="geometry" />
        </mxCell>
        <mxCell id="2tsxsZb1pABXOOoXGLCt-51" value="tidak" style="text;html=1;align=center;verticalAlign=middle;whiteSpace=wrap;rounded=0;" vertex="1" parent="WIyWlLk6GJQsqaUBKTNV-1">
          <mxGeometry x="215" y="1570" width="60" height="30" as="geometry" />
        </mxCell>
        <mxCell id="2tsxsZb1pABXOOoXGLCt-57" value="Memilih Kategori Olahraga" style="rounded=0;whiteSpace=wrap;html=1;" vertex="1" parent="WIyWlLk6GJQsqaUBKTNV-1">
          <mxGeometry x="215" y="890" width="120" height="60" as="geometry" />
        </mxCell>
        <mxCell id="2tsxsZb1pABXOOoXGLCt-58" value="" style="endArrow=classic;html=1;rounded=0;exitX=0.5;exitY=1;exitDx=0;exitDy=0;entryX=0.5;entryY=0;entryDx=0;entryDy=0;" edge="1" parent="WIyWlLk6GJQsqaUBKTNV-1" source="2tsxsZb1pABXOOoXGLCt-15" target="2tsxsZb1pABXOOoXGLCt-57">
          <mxGeometry width="50" height="50" relative="1" as="geometry">
            <mxPoint x="390" y="920" as="sourcePoint" />
            <mxPoint x="440" y="870" as="targetPoint" />
          </mxGeometry>
        </mxCell>
        <mxCell id="2tsxsZb1pABXOOoXGLCt-59" value="" style="endArrow=classic;html=1;rounded=0;exitX=0.5;exitY=1;exitDx=0;exitDy=0;entryX=0.5;entryY=0;entryDx=0;entryDy=0;" edge="1" parent="WIyWlLk6GJQsqaUBKTNV-1" source="2tsxsZb1pABXOOoXGLCt-57" target="2tsxsZb1pABXOOoXGLCt-17">
          <mxGeometry width="50" height="50" relative="1" as="geometry">
            <mxPoint x="390" y="920" as="sourcePoint" />
            <mxPoint x="440" y="870" as="targetPoint" />
          </mxGeometry>
        </mxCell>
        <mxCell id="2tsxsZb1pABXOOoXGLCt-62" value="ya" style="text;html=1;align=center;verticalAlign=middle;whiteSpace=wrap;rounded=0;" vertex="1" parent="WIyWlLk6GJQsqaUBKTNV-1">
          <mxGeometry x="270" y="1300" width="60" height="30" as="geometry" />
        </mxCell>
      </root>
    </mxGraphModel>
  </diagram>
</mxfile>
